<svg xmlns="http://www.w3.org/2000/svg" viewBox="0 0 750 471">
  <rect width="750" height="471" rx="40" fill="#1a1f71"/>
  <path d="M278.198 334.228l33.36-195.763h53.358l-33.384 195.763H278.198zm246.11-191.54c-10.57-3.966-27.135-8.222-47.822-8.222-52.725 0-89.863 26.55-90.18 64.604-.318 28.13 26.508 43.822 46.754 53.185 20.77 9.598 27.752 15.716 27.652 24.283-.133 13.123-16.586 19.116-31.924 19.116-21.355 0-32.701-2.966-50.225-10.274l-6.878-3.112-7.487 43.822c12.463 5.467 35.508 10.2 59.438 10.44 56.09 0 92.502-26.248 92.916-66.884.198-22.27-14.016-39.215-44.8-53.188-18.65-9.056-30.072-15.1-29.951-24.27 0-8.137 9.668-16.838 30.56-16.838 17.442-.27 30.09 3.534 39.936 7.5l4.781 2.26 7.23-42.42m137.18-4.223h-41.23c-12.772 0-22.332 3.486-27.94 16.234l-79.245 179.404h56.031s9.16-24.122 11.232-29.418c6.123 0 60.555.084 68.336.084 1.596 6.854 6.492 29.334 6.492 29.334h49.52l-43.196-195.638zm-65.417 126.408c4.414-11.28 21.26-54.724 21.26-54.724-.317.522 4.381-11.334 7.074-18.684l3.606 16.878s10.217 46.73 12.353 56.53h-44.293zM209.556 138.465l-52.24 133.496-5.565-27.13c-9.726-31.274-40.025-65.157-73.898-82.12l47.767 171.204 56.456-.066 84.004-195.384h-56.524" fill="#fff"/>
  <path d="M146.92 138.465H60.879l-.682 4.073c66.94 16.204 111.232 55.363 129.618 102.416l-18.71-89.96c-3.23-12.396-12.597-16.094-24.186-16.53" fill="#f9a533"/>
</svg>